<?xml version="1.0" encoding="UTF-8"?>
<svg width="44px" height="35px" viewBox="0 0 44 35" version="1.1" xmlns="http://www.w3.org/2000/svg" xmlns:xlink="http://www.w3.org/1999/xlink">
    <!-- Generator: Sketch 63.1 (92452) - https://sketch.com -->
    <title>Airpods icon</title>
    <desc>Created with Sketch.</desc>
    <g id="页面-1" stroke="none" stroke-width="1" fill="none" fill-rule="evenodd">
        <g id="main" transform="translate(-938.000000, -4733.000000)" fill="#FFFFFF">
            <g id="身临其境" transform="translate(-50.000000, 3984.000000)">
                <g id="Content">
                    <g id="Features" transform="translate(462.500000, 741.000000)">
                        <g id="Introducing-AirPods" transform="translate(480.500000, 8.000000)">
                            <g id="Airpods-icon" transform="translate(45.000000, 0.000000)">
                                <path d="M18.0933546,33 L18.0933546,34 C18.0933546,34.5522847 17.6505494,35 17.0991587,35 L14.2893226,35 C13.7402434,35 13.2951267,34.5561352 13.2951267,34 L13.2951267,33 L18.0933546,33 Z M8.49689882,4.36637682e-06 C16.8851983,-0.00687593286 17.9666226,8.11933157 18.0863964,11.0013121 L18.1,11 L18.1,31 L13.2951267,31 L13.2951267,13.0000044 L13.2638494,13.0127451 C12.9752449,13.1288933 10.7360718,14.0000048 8.49689882,14.0000048 C3.69867092,14.0000048 0.1,10.0000044 0.1,10.0000044 L0.1,4.00000437 C0.1,4.00000437 3.69867092,0.00393999647 8.49689882,4.36637682e-06 Z" id="Left-earphone"></path>
                                <path d="M43.0933546,33 L43.0933546,34 C43.0933546,34.5522847 42.6505494,35 42.0991587,35 L39.2893226,35 C38.7402434,35 38.2951267,34.5561352 38.2951267,34 L38.2951267,33 L43.0933546,33 Z M33.4968988,4.36637682e-06 C41.8851983,-0.00687593286 42.9666226,8.11933157 43.0863964,11.0013121 L43.1,11 L43.1,31 L38.2951267,31 L38.2951267,13.0000044 L38.2638494,13.0127451 C37.9752449,13.1288933 35.7360718,14.0000048 33.4968988,14.0000048 C28.6986709,14.0000048 25.1,10.0000044 25.1,10.0000044 L25.1,4.00000437 C25.1,4.00000437 28.6986709,0.00393999647 33.4968988,4.36637682e-06 Z" id="Right-earphone" transform="translate(34.100000, 17.500000) scale(-1, 1) translate(-34.100000, -17.500000) "></path>
                            </g>
                        </g>
                    </g>
                </g>
            </g>
        </g>
    </g>
</svg>