<?xml version="1.0" encoding="UTF-8"?>
<svg width="33px" height="32px" viewBox="0 0 33 32" version="1.1" xmlns="http://www.w3.org/2000/svg" xmlns:xlink="http://www.w3.org/1999/xlink">
    <!-- Generator: Sketch 63.1 (92452) - https://sketch.com -->
    <title>Earpods icon</title>
    <desc>Created with Sketch.</desc>
    <g id="页面-1" stroke="none" stroke-width="1" fill="none" fill-rule="evenodd">
        <g id="main" transform="translate(-774.000000, -4735.000000)" fill="#FFFFFF">
            <g id="身临其境" transform="translate(-50.000000, 3984.000000)">
                <g id="Content">
                    <g id="Features" transform="translate(462.500000, 741.000000)">
                        <g id="EarPods-with-Lightning-Connector" transform="translate(296.833333, 10.000000)">
                            <g id="Earpods-icon" transform="translate(65.000000, 0.000000)">
                                <g id="Lightning-connector" transform="translate(23.480315, 0.000000)">
                                    <path d="M0,9.00247329 C0,8.44882258 0.455875472,8 0.991435449,8 L7.95344644,8 C8.50100112,8 8.94488189,8.45576096 8.94488189,9.00247329 L8.94488189,17.9914698 C8.94488189,19.1007504 8.05451052,20 6.9374758,20 L2.00740609,20 C0.898746322,20 0,19.0980496 0,17.9914698 L0,9.00247329 Z" id="Rectangle-4"></path>
                                    <rect id="Rectangle-5" x="2.23622047" y="22" width="4.47244094" height="8"></rect>
                                    <path d="M1.11811024,0.990777969 C1.11811024,0.443586406 1.55828425,0 2.12246463,0 L6.82241726,0 C7.37710687,0 7.82677165,0.45097518 7.82677165,0.990777969 L7.82677165,6 L1.11811024,6 L1.11811024,0.990777969 Z" id="Rectangle-3"></path>
                                </g>
                                <path d="M8.14300287,4.67825928e-06 C17.6607941,-0.00885170154 17.2181168,12.5596724 17.2065351,12.8519648 L17.2063222,14.9999996 L16.2125984,14.764 L16.2125984,30.0092049 C16.2125984,31.058714 15.4037373,31.9185418 14.3628176,31.9945395 L14.2125984,32 C13.1080289,32 12.2125984,31.1017876 12.2125984,30.0092049 L12.2134012,14.1248291 C11.4364554,14.4340846 9.78972912,15 8.14300287,15 C3.61134319,15 0.212598425,10.7142867 0.212598425,10.7142867 L0.212598425,4.2857175 C0.212598425,4.2857175 3.61134319,0.00422142335 8.14300287,4.67825928e-06 Z" id="Earphone"></path>
                            </g>
                        </g>
                    </g>
                </g>
            </g>
        </g>
    </g>
</svg>