<svg version="1.1" id="Capa_1" xmlns="http://www.w3.org/2000/svg" xmlns:xlink="http://www.w3.org/1999/xlink" x="0px" y="0px" viewBox="0 0 512 512" style="width: 1em; height: 1em; vertical-align: middle; fill: #ffffff; overflow: hidden; font-size: 200px;" xml:space="preserve" width="200" height="200">
<g>
	<g>
		<rect x="389.972" y="74.816" width="30.059" height="30.059"></rect>
	</g>
</g>
<g>
	<g>
		<path d="M468.968,126.63c9.991-13.694,15.268-29.908,15.268-46.925C484.236,35.756,448.48,0,404.53,0
			c-41.106,0-75.039,31.28-79.258,71.287c-22.554-7.52-46.103-11.377-70.286-11.489c-0.373-0.009-0.751-0.011-1.12-0.011
			c-60.392,0-117.17,23.52-159.876,66.225c-42.705,42.706-66.225,99.485-66.225,159.876c0,60.396,23.519,117.177,66.225,159.884
			S193.474,512,253.866,512c0.369,0,0.746-0.002,1.118-0.011c60.131-0.29,116.617-23.913,159.073-66.53
			c42.51-42.671,65.921-99.341,65.921-159.571c0-43.762-12.39-85.818-35.913-122.291L468.968,126.63z M404.53,30.059
			c27.375,0,49.647,22.271,49.647,49.647c0,10.704-3.345,20.889-9.674,29.455l-2.941,3.991v0.359l-37.032,54.969l-37.031-54.969
			v-0.369l-2.942-3.982c-4.146-5.613-7.004-11.881-8.496-18.643c-0.783-3.534-1.178-7.171-1.178-10.811
			C354.883,52.33,377.155,30.059,404.53,30.059z M254.865,91.771c14.557,9.271,29.807,31.316,41.776,60.817
			c13.994,34.493,22.346,75.997,23.961,118.274H187.626c1.663-41.544,10.139-82.628,24.321-117.108
			C224.207,123.949,239.882,101.466,254.865,91.771z M210.025,94.791c-9.494,12.975-18.243,28.968-25.877,47.529
			c-15.625,37.988-24.901,83.122-26.595,128.542H58.393C64.967,184.54,127.693,113.672,210.025,94.791z M58.394,300.921h99.152
			c1.672,46.137,10.954,91.672,26.607,129.652c7.439,18.05,15.948,33.605,25.184,46.263
			C127.346,457.72,64.951,387.004,58.394,300.921z M254.51,480.015c-14.847-9.266-30.389-31.345-42.567-60.895
			c-14.207-34.471-22.685-75.95-24.326-118.2h132.976c-1.638,41.572-9.987,82.685-23.957,117.186
			C284.588,447.865,269.206,470.315,254.51,480.015z M299.238,476.616c9.268-12.924,17.805-28.815,25.26-47.227
			c15.374-37.966,24.501-83.075,26.168-128.468h98.68C442.797,386.578,380.77,457.179,299.238,476.616z M449.352,270.862h-98.678
			c-1.646-46.109-10.779-91.617-26.179-129.574c-7.276-17.934-15.597-33.405-24.632-46.024c9.857,2.371,19.522,5.52,28.96,9.434
			c2.572,7.828,6.343,15.179,11.271,21.932l64.438,95.653l20.998-31.17C439.133,215.659,447.227,242.716,449.352,270.862z"></path>
	</g>
</g>
<g>
</g>
<g>
</g>
<g>
</g>
<g>
</g>
<g>
</g>
<g>
</g>
<g>
</g>
<g>
</g>
<g>
</g>
<g>
</g>
<g>
</g>
<g>
</g>
<g>
</g>
<g>
</g>
<g>
</g>
</svg>