<?xml version="1.0" encoding="UTF-8"?>
<svg width="60px" height="26px" viewBox="0 0 60 26" version="1.1" xmlns="http://www.w3.org/2000/svg" xmlns:xlink="http://www.w3.org/1999/xlink">
    <!-- Generator: Sketch 63.1 (92452) - https://sketch.com -->
    <title>Stereo speakers icon</title>
    <desc>Created with Sketch.</desc>
    <g id="页面-1" stroke="none" stroke-width="1" fill="none" fill-rule="evenodd">
        <g id="main" transform="translate(-449.000000, -4742.000000)">
            <g id="身临其境" transform="translate(-50.000000, 3984.000000)">
                <g id="Content">
                    <g id="Features" transform="translate(462.500000, 741.000000)">
                        <g id="New-stereo-speaker-system" transform="translate(0.500000, 18.000000)">
                            <g id="Stereo-speakers-icon" transform="translate(36.183333, 0.000000)">
                                <path d="M43.8149234,2 C44.9204557,2 45.8166667,2.89821238 45.8166667,3.99079514 L45.8166667,20.0092049 C45.8166667,21.1086907 44.9274049,22 43.8149234,22 L15.81841,22 C14.7128777,22 13.8166667,21.1017876 13.8166667,20.0092049 L13.8166667,3.99079514 C13.8166667,2.89130934 14.7059284,2 15.81841,2 L43.8149234,2 Z M42.6166667,10 C41.7330111,10 41.0166667,10.8954305 41.0166667,12 C41.0166667,13.1045695 41.7330111,14 42.6166667,14 C43.5003223,14 44.2166667,13.1045695 44.2166667,12 C44.2166667,10.8954305 43.5003223,10 42.6166667,10 Z M15.6166667,10 L15.5216985,10.0077249 C15.2421061,10.0534667 15.0166667,10.2968443 15.0166667,10.5902138 L15.0166667,10.5902138 L15.0166667,13.4097862 C15.0166667,13.7375488 15.2852958,14 15.6166667,14 L15.6166667,14 L15.7116348,13.9922751 C15.9912272,13.9465333 16.2166667,13.7031557 16.2166667,13.4097862 L16.2166667,13.4097862 L16.2166667,10.5902138 C16.2166667,10.2624512 15.9480375,10 15.6166667,10 L15.6166667,10 Z" id="Combined-Shape" fill="#FFFFFF"></path>
                                <g id="Right-sound" transform="translate(48.816667, 0.000000)" stroke="#FFFFFF" stroke-width="2">
                                    <path d="M0.0555946907,16.4088425 L0.0555946908,16.4088425 C1.0023441,15.3126358 1.5952381,13.7431249 1.5952381,12 C1.5952381,10.2568751 1.0023441,8.68736423 0.0555946908,7.59115746" id="Combined-Shape"></path>
                                    <path d="M2.76065376,20.082878 L2.76065376,20.082878 C4.49636101,18.0731656 5.58333333,15.1957289 5.58333333,12 C5.58333333,8.80427107 4.49636101,5.92683443 2.76065376,3.91712201" id="Combined-Shape"></path>
                                    <path d="M5.46571283,23.7569134 L5.46571283,23.7569134 C7.99037793,20.8336954 9.57142857,16.648333 9.57142857,12 C9.57142857,7.35166702 7.99037793,3.16630463 5.46571283,0.24308656" id="Combined-Shape"></path>
                                </g>
                                <g id="Left-sould" transform="translate(5.816667, 12.000000) scale(-1, 1) translate(-5.816667, -12.000000) translate(0.816667, 0.000000)" stroke="#FFFFFF" stroke-width="2">
                                    <path d="M0.0555946907,16.4088425 L0.0555946908,16.4088425 C1.0023441,15.3126358 1.5952381,13.7431249 1.5952381,12 C1.5952381,10.2568751 1.0023441,8.68736423 0.0555946908,7.59115746" id="Combined-Shape"></path>
                                    <path d="M2.76065376,20.082878 L2.76065376,20.082878 C4.49636101,18.0731656 5.58333333,15.1957289 5.58333333,12 C5.58333333,8.80427107 4.49636101,5.92683443 2.76065376,3.91712201" id="Combined-Shape"></path>
                                    <path d="M5.46571283,23.7569134 L5.46571283,23.7569134 C7.99037793,20.8336954 9.57142857,16.648333 9.57142857,12 C9.57142857,7.35166702 7.99037793,3.16630463 5.46571283,0.24308656" id="Combined-Shape"></path>
                                </g>
                            </g>
                        </g>
                    </g>
                </g>
            </g>
        </g>
    </g>
</svg>